:SAMPLES-PER-SECOND 30
:FULLY-SPECIFIED
:DEGREES
242
root  17.3222 21.9179 13.2568 4.39322 30.918 5.47913
RightUpLeg  -60.0824 3.74843 -21.891
RightLeg  96.432 -0.364238 10.1249
RightFoot  -24.2605 -0.304748 -1.04028
RightToes  -57.794 -0.373839 -0.392136
Spine  19.7456 7.06445 0.535207
Spine1  33.2364 19.3482 -3.37199
HEad  24.8394 -1.46992 6.67704
LeftShoulder1  0 -2.42657e-020 -4.95415e-022
LeftArm  -16.4276 -18.6795 -104.772
LeftForeArm  15.741 -46.2586 -10.6272
LeftHand  -0.127942 -3.41937 3.9224
RightShoulder  0 2.42657e-020 1.07489e-018
RightArm  -21.5603 47.45 72.3378
RightForeArm  59.6441 28.774 5.5064
RightHand  -3.24607 28.5036 -12.3631
LeftUpLeg  -57.0179 -22.5477 42.6839
LeftLeg  58.4419 -11.5905 -15.8848
LeftFoot  -5.73304 0.041089 0.820575
LeftToes  -70.3928 2.34596e-006 -6.06653e-008
243
root  19.149 21.1456 12.4939 5.96065 26.6038 4.73325
RightUpLeg  -65.8322 4.55024 -26.4997
RightLeg  98.5599 -0.987542 12.9055
RightFoot  -20.3104 -0.167254 -0.556197
RightToes  -63.5097 -0.427929 -0.406239
Spine  20.7847 8.63969 -0.00997683
Spine1  34.5487 22.4423 -3.66415
HEad  24.0598 -6.33436 9.25361
LeftShoulder1  0 -2.42657e-020 -4.95415e-022
LeftArm  -13.6952 -24.3999 -105.958
LeftForeArm  16.1505 -43.8736 -9.76609
LeftHand  -0.0764125 -3.90153 1.87655
RightShoulder  0 2.42657e-020 1.07489e-018
RightArm  -35.1133 56.4907 75.5538
RightForeArm  70.0873 13.9919 2.44622
RightHand  -1.39937 26.6133 -5.54301
LeftUpLeg  -58.5524 -16.3424 38.9996
LeftLeg  65.3801 -8.84066 -15.9415
LeftFoot  -14.1605 0.390185 3.14063
LeftToes  -67.2256 2.34596e-006 -6.06653e-008
244
root  20.5563 20.7648 11.4715 9.65602 23.827 4.41182
RightUpLeg  -73.186 -0.946054 -26.5926
RightLeg  100.779 -1.0785 9.68052
RightFoot  -15.6905 0.186702 1.73256
RightToes  -50.8614 -0.310528 -0.367912
Spine  20.5799 8.60297 -1.08876
Spine1  33.2543 21.2623 -3.35438
HEad  21.0861 -10.0631 13.0675
LeftShoulder1  0 -2.42657e-020 -4.95415e-022
LeftArm  -10.6296 -30.7519 -103.652
LeftForeArm  18.0188 -40.7354 -8.73653
LeftHand  -0.0155966 -3.91177 0.0869249
RightShoulder  0 2.42657e-020 1.07489e-018
RightArm  -49.9772 62.0449 77.2521
RightForeArm  84.571 3.68945 0.548479
RightHand  1.01376 18.3672 6.63675
LeftUpLeg  -63.6871 -11.5924 37.9916
LeftLeg  70.2199 -8.46591 -18.7521
LeftFoot  -16.4655 0.630102 4.3529
LeftToes  -69.8012 2.34596e-006 -6.06653e-008
245
root  21.5417 20.7454 10.5174 12.8881 20.1773 4.56558
RightUpLeg  -79.9672 -5.07232 -20.6975
RightLeg  103.442 -0.106468 1.46084
RightFoot  -20.2585 0.571168 3.57394
RightToes  -32.9127 -0.164484 -0.271692
Spine  20.417 8.0593 -3.12205
Spine1  31.8614 18.8284 -4.32076
HEad  18.4949 -11.678 17.5961
LeftShoulder1  0 -2.42657e-020 -4.95415e-022
LeftArm  -11.4243 -38.258 -98.8678
LeftForeArm  22.9223 -37.467 -7.76596
LeftHand  0.0517442 -4.79511 -1.60808
RightShoulder  0 2.42657e-020 1.07489e-018
RightArm  -33.8136 62.846 83.968
RightForeArm  75.4284 0.688256 0.0489701
RightHand  1.80214 13.0401 16.0488
LeftUpLeg  -67.929 -5.92834 34.7802
LeftLeg  75.0749 -7.19785 -20.4324
LeftFoot  -14.9881 0.524057 3.98223
LeftToes  -70.1872 2.34596e-006 -6.06653e-008
246
root  22.2414 20.9006 9.79675 14.1243 16.4651 3.50633
RightUpLeg  -82.9838 -7.22844 -9.51465
RightLeg  106.428 0.369172 -0.954449
RightFoot  -22.7225 0.661453 3.66873
RightToes  -31.6206 -0.155238 -0.26307
Spine  20.0436 7.08472 -4.47794
Spine1  30.8263 16.0877 -5.61012
HEad  17.6108 -12.0854 22.0721
LeftShoulder1  0 -2.42657e-020 -4.95415e-022
LeftArm  -17.1325 -44.3529 -91.3544
LeftForeArm  30.6964 -34.9408 -7.07112
LeftHand  0.177718 -5.66713 -3.96421
RightShoulder  0 2.42657e-020 1.07489e-018
RightArm  -29.5405 59.6417 94.5066
RightForeArm  78.3339 2.968 0.440246
RightHand  1.82208 13.4945 15.688
LeftUpLeg  -68.5472 -3.44774 34.1863
LeftLeg  76.3266 -6.32258 -19.4321
LeftFoot  -15.5301 0.533946 3.91416
LeftToes  -69.4169 2.34596e-006 -6.06653e-008
247
root  22.7566 21.1595 9.30803 13.4366 14.5696 2.5407
RightUpLeg  -80.6673 -12.6762 2.98011
RightLeg  109.416 1.94276 -6.2927
RightFoot  -26.0099 1.14634 5.33816
RightToes  -26.5406 -0.120839 -0.227218
Spine  19.8579 5.16458 -5.13609
Spine1  30.5294 12.1175 -6.84662
HEad  18.4156 -14.2051 25.3716
LeftShoulder1  0 -2.42657e-020 -4.95415e-022
LeftArm  -25.7327 -47.2869 -80.5016
LeftForeArm  33.135 -34.3059 -6.9024
LeftHand  0.53777 -6.23688 -10.2278
RightShoulder  0 2.42657e-020 1.07489e-018
RightArm  -18.3065 52.2728 102.304
RightForeArm  73.7169 10.032 1.7091
RightHand  1.97205 19.5026 11.8119
LeftUpLeg  -67.9606 -3.63309 34.1006
LeftLeg  76.6973 -5.67969 -17.9748
LeftFoot  -15.2976 0.479071 3.56615
LeftToes  -69.4324 2.34596e-006 -6.06653e-008
248
root  23.0281 21.5359 8.96558 11.9012 12.0975 1.8685
RightUpLeg  -75.3646 -18.6292 9.82
RightLeg  111.878 3.39967 -9.7229
RightFoot  -26.818 1.47614 6.56391
RightToes  -25.2522 -0.112631 -0.217652
Spine  18.7067 3.53508 -5.47641
Spine1  29.1654 8.57207 -7.28269
HEad  19.6835 -20.0543 28.3697
LeftShoulder1  0 -2.42657e-020 -4.95415e-022
LeftArm  -29.7182 -44.728 -71.3832
LeftForeArm  27.8617 -35.7869 -7.29934
LeftHand  0.754777 -5.10282 -17.2099
RightShoulder  0 2.42657e-020 1.07489e-018
RightArm  -4.4488 40.1122 100.504
RightForeArm  54.3432 21.8245 4.01043
RightHand  1.5718 21.2825 8.72379
LeftUpLeg  -65.3768 -3.30025 33.6558
LeftLeg  76.1873 -5.58548 -17.1814
LeftFoot  -14.6131 0.421324 3.28508
LeftToes  -69.1569 2.34596e-006 -6.06653e-008
249
root  23.1186 22.0309 8.61514 10.3147 8.23657 2.2251
RightUpLeg  -68.2768 -21.1468 6.70129
RightLeg  113.28 4.18998 -11.122
RightFoot  -25.9011 1.53371 7.04012
RightToes  -25.3793 -0.113431 -0.218604
Spine  16.8619 2.43336 -6.19376
Spine1  27.173 5.9992 -8.2348
HEad  19.5617 -27.1309 31.6944
LeftShoulder1  0 -2.42657e-020 -4.95415e-022
LeftArm  -38.6829 -39.8222 -66.0008
LeftForeArm  20.909 -40.3198 -8.6086
LeftHand  0.733156 -4.34921 -19.5288
RightShoulder  0 2.42657e-020 1.07489e-018
RightArm  0.484181 28.7505 98.1386
RightForeArm  46.2715 31.0263 6.06569
RightHand  0.77866 23.6663 4.08633
LeftUpLeg  -60.8366 -1.09314 31.7972
LeftLeg  74.3026 -6.17241 -17.0159
LeftFoot  -13.6023 0.379824 3.18394
LeftToes  -68.5986 2.34596e-006 -6.06653e-008
250
root  23.0976 22.5441 8.20228 8.70801 4.18803 3.54149
RightUpLeg  -61.0912 -20.4429 -3.64013
RightLeg  112.33 4.70032 -13.1638
RightFoot  -24.4424 1.58104 7.66792
RightToes  -20.5653 -0.0846326 -0.181352
Spine  15.534 0.968449 -6.98587
Spine1  26.2646 1.66735 -7.36214
HEad  16.7955 -35.2951 34.9902
LeftShoulder1  0 -2.42657e-020 -4.95415e-022
LeftArm  -46.1743 -38.2079 -60.0905
LeftForeArm  19.4697 -39.8093 -8.45218
LeftHand  0.981125 -4.89043 -23.0773
RightShoulder  0 2.42657e-020 1.07489e-018
RightArm  1.04326 18.5152 95.8634
RightForeArm  42.1637 40.3359 8.60487
RightHand  0.439864 25.0979 2.34651
LeftUpLeg  -55.5784 1.98104 29.2887
LeftLeg  71.1814 -7.52776 -17.5666
LeftFoot  -12.2797 0.324434 3.01527
LeftToes  -68.5348 2.34596e-006 -6.06653e-008
251
root  22.7265 23.0802 7.78829 6.68373 0.723343 3.74236
RightUpLeg  -54.5294 -18.4978 -13.0839
RightLeg  108.039 5.08181 -18.5292
RightFoot  -22.6878 1.80284 9.34669
RightToes  -7.58516 -0.0235638 -0.0703136
Spine  14.8457 -0.989457 -6.88085
Spine1  26.0073 -3.63753 -5.60602
HEad  13.8564 -40.6505 36.8628
LeftShoulder1  0 -2.42657e-020 -4.95415e-022
LeftArm  -52.7277 -35.7377 -52.79
LeftForeArm  17.629 -40.951 -8.80387
LeftHand  1.00661 -4.2194 -27.2384
RightShoulder  0 2.42657e-020 1.07489e-018
RightArm  1.73549 10.4495 93.3954
RightForeArm  34.1382 48.3189 11.4437
RightHand  0.612386 25.6658 3.05856
LeftUpLeg  -50.1118 5.86707 28.6523
LeftLeg  67.4368 -9.64111 -18.775
LeftFoot  -9.90781 0.215403 2.48469
LeftToes  -69.7685 2.34596e-006 -6.06653e-008
252
root  22.0787 23.7013 7.19967 5.78458 -3.34616 4.11772
RightUpLeg  -53.1888 -20.6304 -17.8764
RightLeg  101.725 3.57409 -22.9657
RightFoot  -18.6811 1.42705 9.03778
RightToes  -0.364176 -0.000917167 -0.00344292
Spine  13.9754 -2.77026 -6.59495
Spine1  25.1866 -8.41337 -4.14761
HEad  10.2858 -45.1745 41.119
LeftShoulder1  0 -2.42657e-020 -4.95415e-022
LeftArm  -56.5073 -35.5124 -46.1762
LeftForeArm  16.2758 -41.0427 -8.83198
LeftHand  1.23495 -4.57912 -30.5862
RightShoulder  0 2.42657e-020 1.07489e-018
RightArm  1.80955 4.27042 91.821
RightForeArm  31.1297 53.5319 13.8452
RightHand  0.492889 24.9113 2.60184
LeftUpLeg  -44.2333 10.2729 28.649
LeftLeg  61.4005 -12.4921 -18.9119
LeftFoot  -6.81581 0.083741 1.40616
LeftToes  -71.2092 2.34596e-006 -6.06653e-008
